<?xml version="1.0" encoding="UTF-8" standalone="no"?>
<!DOCTYPE svg PUBLIC "-//W3C//DTD SVG 1.1//EN"
 "http://www.w3.org/Graphics/SVG/1.1/DTD/svg11.dtd">
<!-- Generated by graphviz version 7.0.1 (20221109.1506)
 -->
<!-- Pages: 1 -->
<svg width="169pt" height="456pt"
 viewBox="0.00 0.00 169.00 456.00" xmlns="http://www.w3.org/2000/svg" xmlns:xlink="http://www.w3.org/1999/xlink">
<g id="graph0" class="graph" transform="scale(1 1) rotate(0) translate(4 452)">
<polygon fill="white" stroke="none" points="-4,4 -4,-452 165,-452 165,4 -4,4"/>
<!-- client -->
<g id="node1" class="node">
<title>client</title>
<polygon fill="none" stroke="black" points="84,-448 28,-448 28,-412 84,-412 84,-448"/>
<text text-anchor="middle" x="56" y="-426.3" font-family="Times,serif" font-size="14.00">client</text>
</g>
<!-- endpoint -->
<g id="node2" class="node">
<title>endpoint</title>
<polygon fill="none" stroke="black" points="96,-361 16,-361 16,-325 96,-325 96,-361"/>
<text text-anchor="middle" x="56" y="-339.3" font-family="Times,serif" font-size="14.00">endpoint</text>
</g>
<!-- client&#45;&gt;endpoint -->
<g id="edge1" class="edge">
<title>client&#45;&gt;endpoint</title>
<path fill="none" stroke="black" d="M56,-411.8C56,-400.58 56,-385.67 56,-372.69"/>
<polygon fill="black" stroke="black" points="59.5,-372.98 56,-362.98 52.5,-372.98 59.5,-372.98"/>
<text text-anchor="middle" x="108.5" y="-382.8" font-family="Times,serif" font-size="14.00"> HTTP request</text>
</g>
<!-- router -->
<g id="node3" class="node">
<title>router</title>
<polygon fill="none" stroke="black" points="103.5,-288 8.5,-288 8.5,-250 103.5,-250 103.5,-288"/>
<text text-anchor="start" x="16.5" y="-272.8" font-family="Times,serif" font-size="14.00">router</text>
<text text-anchor="start" x="16.5" y="-257.8" font-family="Times,serif" font-size="14.00">&#45; telemetry</text>
</g>
<!-- endpoint&#45;&gt;router -->
<g id="edge2" class="edge">
<title>endpoint&#45;&gt;router</title>
<path fill="none" stroke="black" d="M56,-324.57C56,-317.1 56,-308.17 56,-299.71"/>
<polygon fill="black" stroke="black" points="59.5,-299.79 56,-289.79 52.5,-299.79 59.5,-299.79"/>
</g>
<!-- controller -->
<g id="node4" class="node">
<title>controller</title>
<polygon fill="none" stroke="black" points="99,-213 13,-213 13,-177 99,-177 99,-213"/>
<text text-anchor="middle" x="56" y="-191.3" font-family="Times,serif" font-size="14.00">controller</text>
</g>
<!-- router&#45;&gt;controller -->
<g id="edge3" class="edge">
<title>router&#45;&gt;controller</title>
<path fill="none" stroke="black" d="M56,-249.83C56,-242.24 56,-233.24 56,-224.79"/>
<polygon fill="black" stroke="black" points="59.5,-224.93 56,-214.93 52.5,-224.93 59.5,-224.93"/>
</g>
<!-- view -->
<g id="node5" class="node">
<title>view</title>
<polygon fill="none" stroke="black" points="112,-140 0,-140 0,-87 112,-87 112,-140"/>
<text text-anchor="start" x="8" y="-124.8" font-family="Times,serif" font-size="14.00">view</text>
<text text-anchor="start" x="8" y="-109.8" font-family="Times,serif" font-size="14.00">&#45; components</text>
<text text-anchor="start" x="8" y="-94.8" font-family="Times,serif" font-size="14.00">&#45; gettext</text>
</g>
<!-- controller&#45;&gt;view -->
<g id="edge4" class="edge">
<title>controller&#45;&gt;view</title>
<path fill="none" stroke="black" d="M56,-176.75C56,-169.38 56,-160.48 56,-151.74"/>
<polygon fill="black" stroke="black" points="59.5,-152 56,-142 52.5,-152 59.5,-152"/>
</g>
<!-- client2 -->
<g id="node6" class="node">
<title>client2</title>
<polygon fill="none" stroke="black" points="84,-36 28,-36 28,0 84,0 84,-36"/>
<text text-anchor="middle" x="56" y="-14.3" font-family="Times,serif" font-size="14.00">client</text>
</g>
<!-- view&#45;&gt;client2 -->
<g id="edge5" class="edge">
<title>view&#45;&gt;client2</title>
<path fill="none" stroke="black" d="M56,-86.95C56,-74.74 56,-60.08 56,-47.51"/>
<polygon fill="black" stroke="black" points="59.5,-47.76 56,-37.76 52.5,-47.76 59.5,-47.76"/>
<text text-anchor="middle" x="80.5" y="-57.8" font-family="Times,serif" font-size="14.00"> HTML</text>
</g>
</g>
</svg>
