<?xml version="1.0" encoding="UTF-8" standalone="no"?>
<!DOCTYPE svg PUBLIC "-//W3C//DTD SVG 1.1//EN"
 "http://www.w3.org/Graphics/SVG/1.1/DTD/svg11.dtd">
<!-- Generated by graphviz version 7.0.1 (20221109.1506)
 -->
<!-- Pages: 1 -->
<svg width="200pt" height="616pt"
 viewBox="0.00 0.00 199.50 616.09" xmlns="http://www.w3.org/2000/svg" xmlns:xlink="http://www.w3.org/1999/xlink">
<g id="graph0" class="graph" transform="scale(1 1) rotate(0) translate(4 612.09)">
<polygon fill="white" stroke="none" points="-4,4 -4,-612.09 195.5,-612.09 195.5,4 -4,4"/>
<!-- CICD -->
<g id="node1" class="node">
<title>CICD</title>
<polygon fill="none" stroke="black" points="66.5,-608.09 12.5,-608.09 12.5,-572.09 66.5,-572.09 66.5,-608.09"/>
<text text-anchor="middle" x="39.5" y="-586.39" font-family="Times,serif" font-size="14.00">CICD</text>
</g>
<!-- tester -->
<g id="node2" class="node">
<title>tester</title>
<polygon fill="none" stroke="black" points="69,-521.09 10,-521.09 10,-485.09 69,-485.09 69,-521.09"/>
<text text-anchor="middle" x="39.5" y="-499.39" font-family="Times,serif" font-size="14.00">tester</text>
</g>
<!-- CICD&#45;&gt;tester -->
<g id="edge1" class="edge">
<title>CICD&#45;&gt;tester</title>
<path fill="none" stroke="black" d="M39.5,-571.89C39.5,-560.67 39.5,-545.76 39.5,-532.78"/>
<polygon fill="black" stroke="black" points="43,-533.07 39.5,-523.07 36,-533.07 43,-533.07"/>
<text text-anchor="middle" x="76" y="-542.89" font-family="Times,serif" font-size="14.00"> Directory</text>
</g>
<!-- or -->
<g id="node3" class="node">
<title>or</title>
<ellipse fill="none" stroke="black" cx="39.5" cy="-429.24" rx="18.7" ry="18.7"/>
<text text-anchor="middle" x="39.5" y="-425.54" font-family="Times,serif" font-size="14.00">+</text>
</g>
<!-- tester&#45;&gt;or -->
<g id="edge2" class="edge">
<title>tester&#45;&gt;or</title>
<path fill="none" stroke="black" d="M39.5,-484.7C39.5,-477.19 39.5,-468.19 39.5,-459.7"/>
<polygon fill="black" stroke="black" points="43,-459.74 39.5,-449.74 36,-459.74 43,-459.74"/>
</g>
<!-- builder -->
<g id="node4" class="node">
<title>builder</title>
<polygon fill="none" stroke="black" points="73.5,-359.39 5.5,-359.39 5.5,-323.39 73.5,-323.39 73.5,-359.39"/>
<text text-anchor="middle" x="39.5" y="-337.69" font-family="Times,serif" font-size="14.00">builder</text>
</g>
<!-- or&#45;&gt;builder -->
<g id="edge3" class="edge">
<title>or&#45;&gt;builder</title>
<path fill="none" stroke="black" d="M39.5,-410.45C39.5,-399.1 39.5,-384.12 39.5,-371.1"/>
<polygon fill="black" stroke="black" points="43,-371.38 39.5,-361.38 36,-371.38 43,-371.38"/>
<text text-anchor="middle" x="76" y="-381.19" font-family="Times,serif" font-size="14.00"> Directory</text>
</g>
<!-- logger -->
<g id="node11" class="node">
<title>logger</title>
<polygon fill="none" stroke="black" points="191.5,-447.24 129.5,-447.24 129.5,-411.24 191.5,-411.24 191.5,-447.24"/>
<text text-anchor="middle" x="160.5" y="-425.54" font-family="Times,serif" font-size="14.00">logger</text>
</g>
<!-- or&#45;&gt;logger -->
<g id="edge10" class="edge">
<title>or&#45;&gt;logger</title>
<path fill="none" stroke="black" d="M58.67,-429.24C74.49,-429.24 97.54,-429.24 117.7,-429.24"/>
<polygon fill="black" stroke="black" points="117.65,-432.74 127.65,-429.24 117.65,-425.74 117.65,-432.74"/>
<text text-anchor="middle" x="93.92" y="-436.04" font-family="Times,serif" font-size="14.00"> Report</text>
</g>
<!-- or2 -->
<g id="node5" class="node">
<title>or2</title>
<ellipse fill="none" stroke="black" cx="39.5" cy="-267.54" rx="18.7" ry="18.7"/>
<text text-anchor="middle" x="39.5" y="-263.84" font-family="Times,serif" font-size="14.00">+</text>
</g>
<!-- builder&#45;&gt;or2 -->
<g id="edge4" class="edge">
<title>builder&#45;&gt;or2</title>
<path fill="none" stroke="black" d="M39.5,-323C39.5,-315.49 39.5,-306.5 39.5,-298"/>
<polygon fill="black" stroke="black" points="43,-298.04 39.5,-288.04 36,-298.04 43,-298.04"/>
</g>
<!-- deployer -->
<g id="node6" class="node">
<title>deployer</title>
<polygon fill="none" stroke="black" points="79,-197.7 0,-197.7 0,-161.7 79,-161.7 79,-197.7"/>
<text text-anchor="middle" x="39.5" y="-176" font-family="Times,serif" font-size="14.00">deployer</text>
</g>
<!-- or2&#45;&gt;deployer -->
<g id="edge5" class="edge">
<title>or2&#45;&gt;deployer</title>
<path fill="none" stroke="black" d="M39.5,-248.76C39.5,-237.4 39.5,-222.42 39.5,-209.41"/>
<polygon fill="black" stroke="black" points="43,-209.68 39.5,-199.68 36,-209.68 43,-209.68"/>
<text text-anchor="middle" x="82" y="-219.5" font-family="Times,serif" font-size="14.00"> Executable</text>
</g>
<!-- logger2 -->
<g id="node10" class="node">
<title>logger2</title>
<polygon fill="none" stroke="black" points="191.5,-285.54 129.5,-285.54 129.5,-249.54 191.5,-249.54 191.5,-285.54"/>
<text text-anchor="middle" x="160.5" y="-263.84" font-family="Times,serif" font-size="14.00">logger</text>
</g>
<!-- or2&#45;&gt;logger2 -->
<g id="edge9" class="edge">
<title>or2&#45;&gt;logger2</title>
<path fill="none" stroke="black" d="M58.67,-267.54C74.49,-267.54 97.54,-267.54 117.7,-267.54"/>
<polygon fill="black" stroke="black" points="117.65,-271.05 127.65,-267.54 117.65,-264.05 117.65,-271.05"/>
<text text-anchor="middle" x="93.92" y="-274.34" font-family="Times,serif" font-size="14.00"> Report</text>
</g>
<!-- or3 -->
<g id="node7" class="node">
<title>or3</title>
<ellipse fill="none" stroke="black" cx="39.5" cy="-105.85" rx="18.7" ry="18.7"/>
<text text-anchor="middle" x="39.5" y="-102.15" font-family="Times,serif" font-size="14.00">+</text>
</g>
<!-- deployer&#45;&gt;or3 -->
<g id="edge6" class="edge">
<title>deployer&#45;&gt;or3</title>
<path fill="none" stroke="black" d="M39.5,-161.3C39.5,-153.8 39.5,-144.8 39.5,-136.3"/>
<polygon fill="black" stroke="black" points="43,-136.34 39.5,-126.34 36,-136.34 43,-136.34"/>
</g>
<!-- server -->
<g id="node8" class="node">
<title>server</title>
<polygon fill="none" stroke="black" points="70.5,-36 8.5,-36 8.5,0 70.5,0 70.5,-36"/>
<text text-anchor="middle" x="39.5" y="-14.3" font-family="Times,serif" font-size="14.00">server</text>
</g>
<!-- or3&#45;&gt;server -->
<g id="edge7" class="edge">
<title>or3&#45;&gt;server</title>
<path fill="none" stroke="black" d="M39.5,-87.06C39.5,-75.7 39.5,-60.73 39.5,-47.71"/>
<polygon fill="black" stroke="black" points="43,-47.98 39.5,-37.98 36,-47.98 43,-47.98"/>
<text text-anchor="middle" x="82" y="-57.8" font-family="Times,serif" font-size="14.00"> Executable</text>
</g>
<!-- logger3 -->
<g id="node9" class="node">
<title>logger3</title>
<polygon fill="none" stroke="black" points="191.5,-123.85 129.5,-123.85 129.5,-87.85 191.5,-87.85 191.5,-123.85"/>
<text text-anchor="middle" x="160.5" y="-102.15" font-family="Times,serif" font-size="14.00">logger</text>
</g>
<!-- or3&#45;&gt;logger3 -->
<g id="edge8" class="edge">
<title>or3&#45;&gt;logger3</title>
<path fill="none" stroke="black" d="M58.67,-105.85C74.49,-105.85 97.54,-105.85 117.7,-105.85"/>
<polygon fill="black" stroke="black" points="117.65,-109.35 127.65,-105.85 117.65,-102.35 117.65,-109.35"/>
<text text-anchor="middle" x="93.92" y="-112.65" font-family="Times,serif" font-size="14.00"> Report</text>
</g>
</g>
</svg>
