<?xml version="1.0" encoding="UTF-8" standalone="no"?>
<!DOCTYPE svg PUBLIC "-//W3C//DTD SVG 1.1//EN"
 "http://www.w3.org/Graphics/SVG/1.1/DTD/svg11.dtd">
<!-- Generated by graphviz version 7.0.1 (20221109.1506)
 -->
<!-- Pages: 1 -->
<svg width="421pt" height="675pt"
 viewBox="0.00 0.00 420.50 675.09" xmlns="http://www.w3.org/2000/svg" xmlns:xlink="http://www.w3.org/1999/xlink">
<g id="graph0" class="graph" transform="scale(1 1) rotate(0) translate(4 671.09)">
<polygon fill="white" stroke="none" points="-4,4 -4,-671.09 416.5,-671.09 416.5,4 -4,4"/>
<!-- client -->
<g id="node1" class="node">
<title>client</title>
<polygon fill="none" stroke="black" points="63.5,-667.09 7.5,-667.09 7.5,-631.09 63.5,-631.09 63.5,-667.09"/>
<text text-anchor="middle" x="35.5" y="-645.39" font-family="Times,serif" font-size="14.00">client</text>
</g>
<!-- dns -->
<g id="node2" class="node">
<title>dns</title>
<polygon fill="none" stroke="black" points="62.5,-580.09 8.5,-580.09 8.5,-544.09 62.5,-544.09 62.5,-580.09"/>
<text text-anchor="middle" x="35.5" y="-558.39" font-family="Times,serif" font-size="14.00">dns</text>
</g>
<!-- client&#45;&gt;dns -->
<g id="edge1" class="edge">
<title>client&#45;&gt;dns</title>
<path fill="none" stroke="black" d="M35.5,-630.89C35.5,-619.67 35.5,-604.76 35.5,-591.78"/>
<polygon fill="black" stroke="black" points="39,-592.07 35.5,-582.07 32,-592.07 39,-592.07"/>
<text text-anchor="middle" x="57" y="-601.89" font-family="Times,serif" font-size="14.00"> Hello</text>
</g>
<!-- vm -->
<g id="node3" class="node">
<title>vm</title>
<polygon fill="none" stroke="black" points="62.5,-507.09 8.5,-507.09 8.5,-471.09 62.5,-471.09 62.5,-507.09"/>
<text text-anchor="middle" x="35.5" y="-485.39" font-family="Times,serif" font-size="14.00">vm</text>
</g>
<!-- dns&#45;&gt;vm -->
<g id="edge2" class="edge">
<title>dns&#45;&gt;vm</title>
<path fill="none" stroke="black" d="M35.5,-543.9C35.5,-536.32 35.5,-527.19 35.5,-518.63"/>
<polygon fill="black" stroke="black" points="39,-518.63 35.5,-508.63 32,-518.63 39,-518.63"/>
</g>
<!-- BEAM -->
<g id="node4" class="node">
<title>BEAM</title>
<polygon fill="none" stroke="black" points="66.5,-434.09 4.5,-434.09 4.5,-398.09 66.5,-398.09 66.5,-434.09"/>
<text text-anchor="middle" x="35.5" y="-412.39" font-family="Times,serif" font-size="14.00">BEAM</text>
</g>
<!-- vm&#45;&gt;BEAM -->
<g id="edge3" class="edge">
<title>vm&#45;&gt;BEAM</title>
<path fill="none" stroke="black" d="M35.5,-470.9C35.5,-463.32 35.5,-454.19 35.5,-445.63"/>
<polygon fill="black" stroke="black" points="39,-445.63 35.5,-435.63 32,-445.63 39,-445.63"/>
</g>
<!-- or -->
<g id="node5" class="node">
<title>or</title>
<ellipse fill="none" stroke="black" cx="35.5" cy="-342.24" rx="18.7" ry="18.7"/>
<text text-anchor="middle" x="35.5" y="-338.54" font-family="Times,serif" font-size="14.00">+</text>
</g>
<!-- BEAM&#45;&gt;or -->
<g id="edge4" class="edge">
<title>BEAM&#45;&gt;or</title>
<path fill="none" stroke="black" d="M35.5,-397.7C35.5,-390.19 35.5,-381.19 35.5,-372.7"/>
<polygon fill="black" stroke="black" points="39,-372.74 35.5,-362.74 32,-372.74 39,-372.74"/>
</g>
<!-- and -->
<g id="node6" class="node">
<title>and</title>
<ellipse fill="none" stroke="black" cx="35.5" cy="-267.54" rx="18.7" ry="18.7"/>
<text text-anchor="middle" x="35.5" y="-263.84" font-family="Times,serif" font-size="14.00">×</text>
</g>
<!-- or&#45;&gt;and -->
<g id="edge5" class="edge">
<title>or&#45;&gt;and</title>
<path fill="none" stroke="black" d="M35.5,-323.27C35.5,-315.58 35.5,-306.4 35.5,-297.78"/>
<polygon fill="black" stroke="black" points="39,-298.07 35.5,-288.07 32,-298.07 39,-298.07"/>
</g>
<!-- systemd -->
<g id="node14" class="node">
<title>systemd</title>
<polygon fill="none" stroke="black" points="196,-360.24 119,-360.24 119,-324.24 196,-324.24 196,-360.24"/>
<text text-anchor="middle" x="157.5" y="-338.54" font-family="Times,serif" font-size="14.00">systemd</text>
</g>
<!-- or&#45;&gt;systemd -->
<g id="edge13" class="edge">
<title>or&#45;&gt;systemd</title>
<path fill="none" stroke="black" d="M54.56,-342.24C68.71,-342.24 88.7,-342.24 107.31,-342.24"/>
<polygon fill="black" stroke="black" points="107.13,-345.74 117.13,-342.24 107.13,-338.74 107.13,-345.74"/>
<text text-anchor="middle" x="86.67" y="-349.04" font-family="Times,serif" font-size="14.00"> Crash</text>
</g>
<!-- handler -->
<g id="node7" class="node">
<title>handler</title>
<polygon fill="none" stroke="black" points="71,-211.7 0,-211.7 0,-175.7 71,-175.7 71,-211.7"/>
<text text-anchor="middle" x="35.5" y="-190" font-family="Times,serif" font-size="14.00">handler</text>
</g>
<!-- and&#45;&gt;handler -->
<g id="edge6" class="edge">
<title>and&#45;&gt;handler</title>
<path fill="none" stroke="black" d="M35.5,-248.41C35.5,-240.84 35.5,-231.86 35.5,-223.43"/>
<polygon fill="black" stroke="black" points="39,-223.59 35.5,-213.59 32,-223.59 39,-223.59"/>
</g>
<!-- alarm -->
<g id="node15" class="node">
<title>alarm</title>
<polygon fill="none" stroke="black" points="399.5,-285.54 341.5,-285.54 341.5,-249.54 399.5,-249.54 399.5,-285.54"/>
<text text-anchor="middle" x="370.5" y="-263.84" font-family="Times,serif" font-size="14.00">alarm</text>
</g>
<!-- and&#45;&gt;alarm -->
<g id="edge14" class="edge">
<title>and&#45;&gt;alarm</title>
<path fill="none" stroke="black" d="M54.47,-267.54C146.22,-267.54 237.96,-267.54 329.7,-267.54"/>
<polygon fill="black" stroke="black" points="329.67,-271.05 339.67,-267.54 329.67,-264.05 329.67,-271.05"/>
</g>
<!-- or2 -->
<g id="node8" class="node">
<title>or2</title>
<ellipse fill="none" stroke="black" cx="35.5" cy="-105.85" rx="18.7" ry="18.7"/>
<text text-anchor="middle" x="35.5" y="-102.15" font-family="Times,serif" font-size="14.00">+</text>
</g>
<!-- handler&#45;&gt;or2 -->
<g id="edge7" class="edge">
<title>handler&#45;&gt;or2</title>
<path fill="none" stroke="black" d="M35.5,-175.32C35.5,-164.07 35.5,-149.13 35.5,-136.08"/>
<polygon fill="black" stroke="black" points="39,-136.3 35.5,-126.3 32,-136.3 39,-136.3"/>
</g>
<!-- client2 -->
<g id="node9" class="node">
<title>client2</title>
<polygon fill="none" stroke="black" points="63.5,-36 7.5,-36 7.5,0 63.5,0 63.5,-36"/>
<text text-anchor="middle" x="35.5" y="-14.3" font-family="Times,serif" font-size="14.00">client</text>
</g>
<!-- or2&#45;&gt;client2 -->
<g id="edge8" class="edge">
<title>or2&#45;&gt;client2</title>
<path fill="none" stroke="black" d="M35.5,-87.06C35.5,-75.7 35.5,-60.73 35.5,-47.71"/>
<polygon fill="black" stroke="black" points="39,-47.98 35.5,-37.98 32,-47.98 39,-47.98"/>
<text text-anchor="middle" x="59" y="-57.8" font-family="Times,serif" font-size="14.00"> World</text>
</g>
<!-- supervisor -->
<g id="node10" class="node">
<title>supervisor</title>
<polygon fill="none" stroke="black" points="210.5,-123.85 118.5,-123.85 118.5,-87.85 210.5,-87.85 210.5,-123.85"/>
<text text-anchor="middle" x="164.5" y="-102.15" font-family="Times,serif" font-size="14.00">supervisor</text>
</g>
<!-- or2&#45;&gt;supervisor -->
<g id="edge9" class="edge">
<title>or2&#45;&gt;supervisor</title>
<path fill="none" stroke="black" d="M54.53,-105.85C68.35,-105.85 87.82,-105.85 106.55,-105.85"/>
<polygon fill="black" stroke="black" points="106.55,-109.35 116.55,-105.85 106.55,-102.35 106.55,-109.35"/>
<text text-anchor="middle" x="86.42" y="-112.65" font-family="Times,serif" font-size="14.00"> Crash</text>
</g>
<!-- client3 -->
<g id="node11" class="node">
<title>client3</title>
<polygon fill="none" stroke="black" points="192.5,-36 136.5,-36 136.5,0 192.5,0 192.5,-36"/>
<text text-anchor="middle" x="164.5" y="-14.3" font-family="Times,serif" font-size="14.00">client</text>
</g>
<!-- supervisor&#45;&gt;client3 -->
<g id="edge10" class="edge">
<title>supervisor&#45;&gt;client3</title>
<path fill="none" stroke="black" d="M164.5,-87.48C164.5,-76.07 164.5,-60.89 164.5,-47.71"/>
<polygon fill="black" stroke="black" points="168,-47.86 164.5,-37.86 161,-47.86 168,-47.86"/>
<text text-anchor="middle" x="186.5" y="-57.8" font-family="Times,serif" font-size="14.00"> Error</text>
</g>
<!-- logger2 -->
<g id="node12" class="node">
<title>logger2</title>
<polygon fill="none" stroke="black" points="308.5,-123.85 246.5,-123.85 246.5,-87.85 308.5,-87.85 308.5,-123.85"/>
<text text-anchor="middle" x="277.5" y="-102.15" font-family="Times,serif" font-size="14.00">logger</text>
</g>
<!-- supervisor&#45;&gt;logger2 -->
<g id="edge11" class="edge">
<title>supervisor&#45;&gt;logger2</title>
<path fill="none" stroke="black" d="M210.85,-105.85C218.87,-105.85 226.89,-105.85 234.91,-105.85"/>
<polygon fill="black" stroke="black" points="234.74,-109.35 244.74,-105.85 234.74,-102.35 234.74,-109.35"/>
</g>
<!-- developper2 -->
<g id="node13" class="node">
<title>developper2</title>
<polygon fill="none" stroke="black" points="325.5,-36 229.5,-36 229.5,0 325.5,0 325.5,-36"/>
<text text-anchor="middle" x="277.5" y="-14.3" font-family="Times,serif" font-size="14.00">developper</text>
</g>
<!-- logger2&#45;&gt;developper2 -->
<g id="edge12" class="edge">
<title>logger2&#45;&gt;developper2</title>
<path fill="none" stroke="black" d="M277.5,-87.48C277.5,-76.07 277.5,-60.89 277.5,-47.71"/>
<polygon fill="black" stroke="black" points="281,-47.86 277.5,-37.86 274,-47.86 281,-47.86"/>
<text text-anchor="middle" x="293" y="-57.8" font-family="Times,serif" font-size="14.00"> Log</text>
</g>
<!-- logger -->
<g id="node16" class="node">
<title>logger</title>
<polygon fill="none" stroke="black" points="401.5,-211.7 339.5,-211.7 339.5,-175.7 401.5,-175.7 401.5,-211.7"/>
<text text-anchor="middle" x="370.5" y="-190" font-family="Times,serif" font-size="14.00">logger</text>
</g>
<!-- alarm&#45;&gt;logger -->
<g id="edge15" class="edge">
<title>alarm&#45;&gt;logger</title>
<path fill="none" stroke="black" d="M370.5,-249.15C370.5,-241.44 370.5,-232.17 370.5,-223.47"/>
<polygon fill="black" stroke="black" points="374,-223.69 370.5,-213.69 367,-223.69 374,-223.69"/>
</g>
<!-- sysadmin -->
<g id="node17" class="node">
<title>sysadmin</title>
<polygon fill="none" stroke="black" points="412.5,-123.85 328.5,-123.85 328.5,-87.85 412.5,-87.85 412.5,-123.85"/>
<text text-anchor="middle" x="370.5" y="-102.15" font-family="Times,serif" font-size="14.00">sysadmin</text>
</g>
<!-- logger&#45;&gt;sysadmin -->
<g id="edge16" class="edge">
<title>logger&#45;&gt;sysadmin</title>
<path fill="none" stroke="black" d="M370.5,-175.32C370.5,-163.92 370.5,-148.73 370.5,-135.56"/>
<polygon fill="black" stroke="black" points="374,-135.71 370.5,-125.71 367,-135.71 374,-135.71"/>
<text text-anchor="middle" x="386" y="-146.5" font-family="Times,serif" font-size="14.00"> Log</text>
</g>
</g>
</svg>
