<?xml version="1.0" encoding="UTF-8" standalone="no"?>
<!DOCTYPE svg PUBLIC "-//W3C//DTD SVG 1.1//EN"
 "http://www.w3.org/Graphics/SVG/1.1/DTD/svg11.dtd">
<!-- Generated by graphviz version 7.0.1 (20221109.1506)
 -->
<!-- Pages: 1 -->
<svg width="143pt" height="218pt"
 viewBox="0.00 0.00 143.00 218.00" xmlns="http://www.w3.org/2000/svg" xmlns:xlink="http://www.w3.org/1999/xlink">
<g id="graph0" class="graph" transform="scale(1 1) rotate(0) translate(4 214)">
<polygon fill="white" stroke="none" points="-4,4 -4,-214 139,-214 139,4 -4,4"/>
<!-- client -->
<g id="node1" class="node">
<title>client</title>
<polygon fill="none" stroke="black" points="56,-210 0,-210 0,-174 56,-174 56,-210"/>
<text text-anchor="middle" x="28" y="-188.3" font-family="Times,serif" font-size="14.00">client</text>
</g>
<!-- url -->
<g id="node2" class="node">
<title>url</title>
<polygon fill="none" stroke="black" points="55,-123 1,-123 1,-87 55,-87 55,-123"/>
<text text-anchor="middle" x="28" y="-101.3" font-family="Times,serif" font-size="14.00">url</text>
</g>
<!-- client&#45;&gt;url -->
<g id="edge1" class="edge">
<title>client&#45;&gt;url</title>
<path fill="none" stroke="black" d="M28,-173.8C28,-162.58 28,-147.67 28,-134.69"/>
<polygon fill="black" stroke="black" points="31.5,-134.98 28,-124.98 24.5,-134.98 31.5,-134.98"/>
<text text-anchor="middle" x="49.5" y="-144.8" font-family="Times,serif" font-size="14.00"> Hello</text>
</g>
<!-- client2 -->
<g id="node3" class="node">
<title>client2</title>
<polygon fill="none" stroke="black" points="56,-36 0,-36 0,0 56,0 56,-36"/>
<text text-anchor="middle" x="28" y="-14.3" font-family="Times,serif" font-size="14.00">client</text>
</g>
<!-- url&#45;&gt;client2 -->
<g id="edge2" class="edge">
<title>url&#45;&gt;client2</title>
<path fill="none" stroke="black" d="M28,-86.8C28,-75.58 28,-60.67 28,-47.69"/>
<polygon fill="black" stroke="black" points="31.5,-47.98 28,-37.98 24.5,-47.98 31.5,-47.98"/>
<text text-anchor="middle" x="81.5" y="-57.8" font-family="Times,serif" font-size="14.00"> World + Error</text>
</g>
</g>
</svg>
