<?xml version="1.0" encoding="UTF-8" standalone="no"?>
<!DOCTYPE svg PUBLIC "-//W3C//DTD SVG 1.1//EN"
 "http://www.w3.org/Graphics/SVG/1.1/DTD/svg11.dtd">
<!-- Generated by graphviz version 7.0.1 (20221109.1506)
 -->
<!-- Pages: 1 -->
<svg width="146pt" height="218pt"
 viewBox="0.00 0.00 146.00 218.00" xmlns="http://www.w3.org/2000/svg" xmlns:xlink="http://www.w3.org/1999/xlink">
<g id="graph0" class="graph" transform="scale(1 1) rotate(0) translate(4 214)">
<polygon fill="white" stroke="none" points="-4,4 -4,-214 142,-214 142,4 -4,4"/>
<!-- client -->
<g id="node1" class="node">
<title>client</title>
<polygon fill="none" stroke="black" points="59,-210 3,-210 3,-174 59,-174 59,-210"/>
<text text-anchor="middle" x="31" y="-188.3" font-family="Times,serif" font-size="14.00">client</text>
</g>
<!-- server -->
<g id="node2" class="node">
<title>server</title>
<polygon fill="none" stroke="black" points="62,-123 0,-123 0,-87 62,-87 62,-123"/>
<text text-anchor="middle" x="31" y="-101.3" font-family="Times,serif" font-size="14.00">server</text>
</g>
<!-- client&#45;&gt;server -->
<g id="edge1" class="edge">
<title>client&#45;&gt;server</title>
<path fill="none" stroke="black" d="M31,-173.8C31,-162.58 31,-147.67 31,-134.69"/>
<polygon fill="black" stroke="black" points="34.5,-134.98 31,-124.98 27.5,-134.98 34.5,-134.98"/>
<text text-anchor="middle" x="52.5" y="-144.8" font-family="Times,serif" font-size="14.00"> Hello</text>
</g>
<!-- client2 -->
<g id="node3" class="node">
<title>client2</title>
<polygon fill="none" stroke="black" points="59,-36 3,-36 3,0 59,0 59,-36"/>
<text text-anchor="middle" x="31" y="-14.3" font-family="Times,serif" font-size="14.00">client</text>
</g>
<!-- server&#45;&gt;client2 -->
<g id="edge2" class="edge">
<title>server&#45;&gt;client2</title>
<path fill="none" stroke="black" d="M31,-86.8C31,-75.58 31,-60.67 31,-47.69"/>
<polygon fill="black" stroke="black" points="34.5,-47.98 31,-37.98 27.5,-47.98 34.5,-47.98"/>
<text text-anchor="middle" x="84.5" y="-57.8" font-family="Times,serif" font-size="14.00"> World + Error</text>
</g>
</g>
</svg>
